<svg width="1920" height="1080" viewBox="0 0 1920 1080" xmlns="http://www.w3.org/2000/svg">
  <defs>
    <radialGradient id="aurora1" cx="30%" cy="20%" r="60%">
      <stop offset="0%" style="stop-color:#00ff88;stop-opacity:0.8" />
      <stop offset="50%" style="stop-color:#00d4ff;stop-opacity:0.6" />
      <stop offset="100%" style="stop-color:#0099ff;stop-opacity:0.2" />
    </radialGradient>
    <radialGradient id="aurora2" cx="70%" cy="80%" r="50%">
      <stop offset="0%" style="stop-color:#ff0080;stop-opacity:0.7" />
      <stop offset="50%" style="stop-color:#8000ff;stop-opacity:0.5" />
      <stop offset="100%" style="stop-color:#0040ff;stop-opacity:0.3" />
    </radialGradient>
    <linearGradient id="night" x1="0%" y1="0%" x2="0%" y2="100%">
      <stop offset="0%" style="stop-color:#0a0a2e;stop-opacity:1" />
      <stop offset="100%" style="stop-color:#16213e;stop-opacity:1" />
    </linearGradient>
  </defs>
  
  <rect width="100%" height="100%" fill="url(#night)"/>
  
  <ellipse cx="576" cy="200" rx="800" ry="150" fill="url(#aurora1)" transform="rotate(-15 576 200)"/>
  <ellipse cx="1344" cy="600" rx="600" ry="200" fill="url(#aurora2)" transform="rotate(20 1344 600)"/>
  <ellipse cx="400" cy="800" rx="500" ry="100" fill="url(#aurora1)" opacity="0.6" transform="rotate(-30 400 800)"/>
  
  <!-- Stars -->
  <circle cx="200" cy="100" r="2" fill="#ffffff" opacity="0.8"/>
  <circle cx="500" cy="80" r="1.5" fill="#ffffff" opacity="0.9"/>
  <circle cx="800" cy="120" r="1" fill="#ffffff" opacity="0.7"/>
  <circle cx="1200" cy="90" r="2" fill="#ffffff" opacity="0.8"/>
  <circle cx="1500" cy="110" r="1.5" fill="#ffffff" opacity="0.6"/>
  <circle cx="1700" cy="70" r="1" fill="#ffffff" opacity="0.9"/>
  <circle cx="300" cy="200" r="1" fill="#ffffff" opacity="0.5"/>
  <circle cx="700" cy="180" r="1.5" fill="#ffffff" opacity="0.7"/>
  <circle cx="1100" cy="160" r="1" fill="#ffffff" opacity="0.8"/>
  <circle cx="1400" cy="190" r="2" fill="#ffffff" opacity="0.6"/>
</svg>