<svg width="1920" height="1080" viewBox="0 0 1920 1080" xmlns="http://www.w3.org/2000/svg">
  <defs>
    <linearGradient id="sky" x1="0%" y1="0%" x2="0%" y2="100%">
      <stop offset="0%" style="stop-color:#ff9a9e;stop-opacity:1" />
      <stop offset="30%" style="stop-color:#fecfef;stop-opacity:1" />
      <stop offset="70%" style="stop-color:#fecfef;stop-opacity:1" />
      <stop offset="100%" style="stop-color:#ff6b6b;stop-opacity:1" />
    </linearGradient>
    <radialGradient id="sun" cx="50%" cy="50%" r="50%">
      <stop offset="0%" style="stop-color:#ffeb3b;stop-opacity:1" />
      <stop offset="70%" style="stop-color:#ff9800;stop-opacity:0.8" />
      <stop offset="100%" style="stop-color:#ff5722;stop-opacity:0.3" />
    </radialGradient>
    <linearGradient id="mountain1" x1="0%" y1="0%" x2="0%" y2="100%">
      <stop offset="0%" style="stop-color:#4a4a4a;stop-opacity:1" />
      <stop offset="100%" style="stop-color:#2a2a2a;stop-opacity:1" />
    </linearGradient>
    <linearGradient id="mountain2" x1="0%" y1="0%" x2="0%" y2="100%">
      <stop offset="0%" style="stop-color:#6a6a6a;stop-opacity:0.8" />
      <stop offset="100%" style="stop-color:#3a3a3a;stop-opacity:0.8" />
    </linearGradient>
  </defs>
  
  <rect width="100%" height="100%" fill="url(#sky)"/>
  
  <!-- Sun -->
  <circle cx="1400" cy="250" r="80" fill="url(#sun)"/>
  
  <!-- Mountains -->
  <polygon points="0,600 400,300 800,500 1200,200 1600,400 1920,350 1920,1080 0,1080" fill="url(#mountain1)"/>
  <polygon points="200,700 600,400 1000,600 1400,300 1800,500 1920,450 1920,1080 0,1080" fill="url(#mountain2)"/>
  
  <!-- Clouds -->
  <ellipse cx="300" cy="200" rx="80" ry="30" fill="#ffffff" opacity="0.6"/>
  <ellipse cx="320" cy="190" rx="60" ry="25" fill="#ffffff" opacity="0.6"/>
  <ellipse cx="280" cy="190" rx="50" ry="20" fill="#ffffff" opacity="0.6"/>
  
  <ellipse cx="800" cy="150" rx="100" ry="35" fill="#ffffff" opacity="0.5"/>
  <ellipse cx="830" cy="140" rx="70" ry="28" fill="#ffffff" opacity="0.5"/>
  <ellipse cx="770" cy="140" rx="60" ry="22" fill="#ffffff" opacity="0.5"/>
</svg>