<svg width="1920" height="1080" viewBox="0 0 1920 1080" xmlns="http://www.w3.org/2000/svg">
  <defs>
    <radialGradient id="nebula1" cx="40%" cy="30%" r="70%">
      <stop offset="0%" style="stop-color:#ff0080;stop-opacity:0.8" />
      <stop offset="30%" style="stop-color:#8000ff;stop-opacity:0.6" />
      <stop offset="70%" style="stop-color:#0040ff;stop-opacity:0.4" />
      <stop offset="100%" style="stop-color:#000020;stop-opacity:0.2" />
    </radialGradient>
    <radialGradient id="nebula2" cx="70%" cy="70%" r="60%">
      <stop offset="0%" style="stop-color:#00ff88;stop-opacity:0.7" />
      <stop offset="40%" style="stop-color:#0080ff;stop-opacity:0.5" />
      <stop offset="80%" style="stop-color:#4000ff;stop-opacity:0.3" />
      <stop offset="100%" style="stop-color:#000040;stop-opacity:0.1" />
    </radialGradient>
    <linearGradient id="space" x1="0%" y1="0%" x2="100%" y2="100%">
      <stop offset="0%" style="stop-color:#000011;stop-opacity:1" />
      <stop offset="50%" style="stop-color:#000033;stop-opacity:1" />
      <stop offset="100%" style="stop-color:#000022;stop-opacity:1" />
    </linearGradient>
  </defs>
  
  <rect width="100%" height="100%" fill="url(#space)"/>
  
  <ellipse cx="768" cy="324" rx="600" ry="400" fill="url(#nebula1)" transform="rotate(-30 768 324)"/>
  <ellipse cx="1344" cy="756" rx="500" ry="300" fill="url(#nebula2)" transform="rotate(45 1344 756)"/>
  
  <!-- Stars -->
  <circle cx="100" cy="100" r="1" fill="#ffffff" opacity="0.9"/>
  <circle cx="300" cy="150" r="1.5" fill="#ffffff" opacity="0.8"/>
  <circle cx="500" cy="80" r="1" fill="#ffffff" opacity="0.7"/>
  <circle cx="700" cy="200" r="2" fill="#ffffff" opacity="0.9"/>
  <circle cx="900" cy="120" r="1" fill="#ffffff" opacity="0.6"/>
  <circle cx="1100" cy="180" r="1.5" fill="#ffffff" opacity="0.8"/>
  <circle cx="1300" cy="90" r="1" fill="#ffffff" opacity="0.7"/>
  <circle cx="1500" cy="160" r="2" fill="#ffffff" opacity="0.9"/>
  <circle cx="1700" cy="110" r="1" fill="#ffffff" opacity="0.8"/>
  <circle cx="1800" cy="200" r="1.5" fill="#ffffff" opacity="0.6"/>
  
  <circle cx="200" cy="400" r="1" fill="#ffffff" opacity="0.5"/>
  <circle cx="400" cy="450" r="1.5" fill="#ffffff" opacity="0.7"/>
  <circle cx="600" cy="380" r="1" fill="#ffffff" opacity="0.8"/>
  <circle cx="800" cy="420" r="2" fill="#ffffff" opacity="0.6"/>
  <circle cx="1000" cy="460" r="1" fill="#ffffff" opacity="0.9"/>
  <circle cx="1200" cy="390" r="1.5" fill="#ffffff" opacity="0.7"/>
  <circle cx="1400" cy="440" r="1" fill="#ffffff" opacity="0.8"/>
  <circle cx="1600" cy="410" r="2" fill="#ffffff" opacity="0.5"/>
  
  <circle cx="150" cy="700" r="1" fill="#ffffff" opacity="0.8"/>
  <circle cx="350" cy="750" r="1.5" fill="#ffffff" opacity="0.6"/>
  <circle cx="550" cy="680" r="1" fill="#ffffff" opacity="0.9"/>
  <circle cx="750" cy="720" r="2" fill="#ffffff" opacity="0.7"/>
  <circle cx="950" cy="760" r="1" fill="#ffffff" opacity="0.8"/>
  <circle cx="1150" cy="690" r="1.5" fill="#ffffff" opacity="0.5"/>
  <circle cx="1350" cy="740" r="1" fill="#ffffff" opacity="0.9"/>
  <circle cx="1550" cy="710" r="2" fill="#ffffff" opacity="0.6"/>
  <circle cx="1750" cy="780" r="1" fill="#ffffff" opacity="0.8"/>
  
  <circle cx="250" cy="900" r="1" fill="#ffffff" opacity="0.7"/>
  <circle cx="450" cy="950" r="1.5" fill="#ffffff" opacity="0.8"/>
  <circle cx="650" cy="880" r="1" fill="#ffffff" opacity="0.6"/>
  <circle cx="850" cy="920" r="2" fill="#ffffff" opacity="0.9"/>
  <circle cx="1050" cy="960" r="1" fill="#ffffff" opacity="0.7"/>
  <circle cx="1250" cy="890" r="1.5" fill="#ffffff" opacity="0.8"/>
  <circle cx="1450" cy="940" r="1" fill="#ffffff" opacity="0.5"/>
  <circle cx="1650" cy="910" r="2" fill="#ffffff" opacity="0.9"/>
</svg>